<?xml version="1.0" encoding="utf-8"?>
<!-- Generator: Adobe Illustrator 19.0.0, SVG Export Plug-In . SVG Version: 6.00 Build 0)  -->
<svg version="1.1" id="Capa_1" xmlns="http://www.w3.org/2000/svg" xmlns:xlink="http://www.w3.org/1999/xlink" x="0px" y="0px"
	 viewBox="0 0 11.9 11.9" style="enable-background:new 0 0 11.9 11.9;" xml:space="preserve">
<style type="text/css">
	.st0{fill:#29ABE2;}
</style>
<path class="st0" d="M11.8,10.3L9.5,8C9.3,7.9,9.2,7.8,9.1,7.8H8.7c0.6-0.8,1-1.9,1-3C9.7,2.2,7.5,0,4.9,0C2.2,0,0,2.2,0,4.9
	c0,2.7,2.2,4.9,4.9,4.9c1.1,0,2.2-0.4,3-1v0.4c0,0.1,0.1,0.3,0.2,0.4l2.3,2.3c0.2,0.2,0.6,0.2,0.8,0l0.7-0.7
	C12,10.9,12,10.5,11.8,10.3 M4.9,7.8c-1.6,0-3-1.3-3-3c0-1.6,1.3-3,3-3c1.6,0,3,1.3,3,3C7.8,6.5,6.5,7.8,4.9,7.8"/>
<g id="XMLID_53_">
</g>
<g id="XMLID_54_">
</g>
<g id="XMLID_55_">
</g>
<g id="XMLID_56_">
</g>
<g id="XMLID_57_">
</g>
<g id="XMLID_58_">
</g>
<g id="XMLID_59_">
</g>
<g id="XMLID_60_">
</g>
<g id="XMLID_61_">
</g>
<g id="XMLID_62_">
</g>
<g id="XMLID_63_">
</g>
<g id="XMLID_64_">
</g>
<g id="XMLID_65_">
</g>
<g id="XMLID_66_">
</g>
<g id="XMLID_67_">
</g>
</svg>
